<?xml version="1.0" encoding="UTF-8" standalone="no"?>
<svg
   width="128"
   height="128"
   version="1.1"
   id="svg11"
   sodipodi:docname="logo.svg"
   xml:space="preserve"
   inkscape:version="1.4 (e7c3feb100, 2024-10-09)"
   xmlns:inkscape="http://www.inkscape.org/namespaces/inkscape"
   xmlns:sodipodi="http://sodipodi.sourceforge.net/DTD/sodipodi-0.dtd"
   xmlns:xlink="http://www.w3.org/1999/xlink"
   xmlns="http://www.w3.org/2000/svg"
   xmlns:svg="http://www.w3.org/2000/svg"><sodipodi:namedview
     id="namedview11"
     pagecolor="#ffffff"
     bordercolor="#000000"
     borderopacity="0.25"
     inkscape:showpageshadow="2"
     inkscape:pageopacity="0.0"
     inkscape:pagecheckerboard="0"
     inkscape:deskcolor="#d1d1d1"
     inkscape:zoom="5.6568542"
     inkscape:cx="29.786873"
     inkscape:cy="54.358834"
     inkscape:window-width="2048"
     inkscape:window-height="1076"
     inkscape:window-x="0"
     inkscape:window-y="0"
     inkscape:window-maximized="1"
     inkscape:current-layer="svg11" /><defs
     id="defs7"><linearGradient
       id="linearGradient15"
       inkscape:collect="always"><stop
         style="stop-color:#201645;stop-opacity:1;"
         offset="0"
         id="stop15" /><stop
         style="stop-color:#000000;stop-opacity:1;"
         offset="1"
         id="stop16" /></linearGradient><linearGradient
       id="c"><stop
         style="stop-color:#26124c;stop-opacity:1"
         offset="0"
         id="stop1" /><stop
         style="stop-color:#93718d;stop-opacity:1"
         offset="1"
         id="stop2" /></linearGradient><linearGradient
       id="b"><stop
         style="stop-color:#c5c5c5;stop-opacity:1"
         offset="0"
         id="stop3" /><stop
         style="stop-color:#c5c5c5;stop-opacity:0"
         offset="1"
         id="stop4" /></linearGradient><linearGradient
       id="a"><stop
         style="stop-color:#ff2b2b;stop-opacity:1"
         offset=".05"
         id="stop5" /><stop
         style="stop-color:#921775;stop-opacity:1"
         offset=".379"
         id="stop6" /><stop
         style="stop-color:#7b0f2f;stop-opacity:1"
         offset=".942"
         id="stop7" /></linearGradient><linearGradient
       xlink:href="#a"
       id="d"
       x1="0"
       y1="0"
       x2="32"
       y2="32"
       gradientUnits="userSpaceOnUse" /><linearGradient
       xlink:href="#c"
       id="f"
       x1="0"
       y1="32"
       x2="32"
       y2="0"
       gradientUnits="userSpaceOnUse" /><filter
       style="color-interpolation-filters:sRGB"
       id="e"
       x="-0.15"
       y="-0.15"
       width="1.3"
       height="1.3"><feGaussianBlur
         stdDeviation="2 2"
         result="blur"
         id="feGaussianBlur7" /></filter><linearGradient
       inkscape:collect="always"
       xlink:href="#linearGradient15"
       id="linearGradient16"
       x1="28.879301"
       y1="94.582367"
       x2="97.706482"
       y2="33.064079"
       gradientUnits="userSpaceOnUse" /></defs><path
     style="fill:url(#d);fill-opacity:1;stroke-width:5.496;stroke-linejoin:bevel;stroke-miterlimit:40.6"
     d="M4 0h24l4 4v24l-4 4H4l-4-4V4z"
     transform="scale(4)"
     id="path7" /><path
     style="display:inline;fill:#000;fill-opacity:1;stroke-width:5.496;stroke-linejoin:bevel;stroke-miterlimit:40.6;filter:url(#e)"
     d="M11 0h10l11 11v10L21 32H11L0 21V11z"
     transform="scale(4)"
     id="path8" /><path
     style="display:inline;fill:#000;fill-opacity:1;stroke-width:5.496;stroke-linejoin:bevel;stroke-miterlimit:40.6"
     d="M11 0h10l11 11v10L21 32H11L0 21V11z"
     transform="scale(4)"
     id="path9" /><path
     style="display:inline;fill:url(#f);fill-opacity:1;stroke-width:5.496;stroke-linejoin:bevel;stroke-miterlimit:40.6"
     d="M12 0h8a2.414 2.414 22.5 0 1 1.707.707l9.586 9.586A2.414 2.414 67.5 0 1 32 12v8a2.414 2.414 112.5 0 1-.707 1.707l-9.586 9.586A2.414 2.414 157.5 0 1 20 32h-8a2.414 2.414 22.5 0 1-1.707-.707L.707 21.707A2.414 2.414 67.5 0 1 0 20v-8a2.414 2.414 112.5 0 1 .707-1.707L10.293.707A2.414 2.414 157.5 0 1 12 0z"
     id="path10"
     transform="translate(22 22) scale(2.625)" /><path
     id="path13"
     style="display:inline;fill:url(#linearGradient16);fill-opacity:1;stroke:none;stroke-width:1.46281;stroke-opacity:1"
     d="m 31.76106,46.264044 c -0.826262,0 -1.652485,0.31539 -2.28565,0.948537 -1.266216,1.266243 -1.266216,3.305034 0,4.571277 l 7.039777,7.039758 c 0.07422,0.07384 0.152292,0.143331 0.231515,0.208594 -5.310815,6.374174 -8.219369,14.408238 -8.21981,22.704915 H 99.47307 c -4.13e-4,-8.296676 -2.90894,-16.33075 -8.219733,-22.704942 0.07884,-0.06522 0.157291,-0.134679 0.231514,-0.208594 l 7.039739,-7.039758 c 1.266216,-1.266243 1.266216,-3.305034 0,-4.571273 -1.266216,-1.266243 -3.305007,-1.266243 -4.5713,0 l -7.039738,7.039762 c -0.07422,0.07384 -0.143447,0.152599 -0.208825,0.231399 -6.374186,-5.31077 -14.408243,-8.219283 -22.7049,-8.219695 -8.296674,4.11e-4 -16.330746,2.908934 -22.704938,8.219722 -0.06538,-0.0788 -0.134602,-0.157561 -0.208825,-0.2314 l -7.039739,-7.039773 c -0.633127,-0.63312 -1.459389,-0.948537 -2.285611,-0.948537 z m 16.150842,15.73375 c 2.120719,-2.4e-5 3.839914,1.719152 3.839913,3.839871 -10e-7,2.120717 -1.719196,3.839891 -3.839913,3.839867 -2.120688,-1.8e-5 -3.839836,-1.719179 -3.839837,-3.839867 -1e-6,-2.120689 1.719148,-3.839853 3.839837,-3.839871 z m 32.176081,0 c 2.120704,-3e-6 3.839876,1.719167 3.839875,3.839871 -10e-7,2.120702 -1.719173,3.83987 -3.839875,3.839867 -2.120702,3e-6 -3.839874,-1.719165 -3.839875,-3.839867 -10e-7,-2.120704 1.719171,-3.839874 3.839875,-3.839871 z"
     sodipodi:nodetypes="ccccccccccscccccccccssssssssss" /></svg>
